<?xml version="1.0" encoding="utf-8" ?><svg xmlns="http://www.w3.org/2000/svg" xmlns:xlink="http://www.w3.org/1999/xlink" width="512" height="512" viewBox="0 0 512 512"><path fill="#010101" fill-opacity="0.0078431377" transform="scale(0.5 0.5)" d="M0 0L1024 0L1024 1024L0 1024L0 0ZM296.146 289.563C309.905 299.08 325.931 311.876 339.896 322.146L453.689 406.326L488.016 431.821C494.973 436.999 503.431 443.602 510.617 448.24C540.009 427.663 570.691 403.846 599.638 382.413C642.031 351.346 684.139 319.893 725.957 288.056C728.247 290.81 730.848 294.102 733.324 296.605C743.66 281.974 754.669 267.505 764.759 252.781C770.813 244.101 777.33 235.039 783.18 226.277C736.422 259.284 689.888 292.61 643.584 326.251L511.005 421.371C445.376 373.001 377.826 325.546 311.643 277.852L261.216 241.432C258.04 239.147 241.701 227.276 239.181 226.329C254.495 249.273 273.266 274.391 289.381 297.335C291.47 294.885 293.945 291.826 296.146 289.563Z"/><path fill="#FE8A00" transform="scale(0.5 0.5)" d="M126.94 127.145C143.943 127.652 162.185 126.682 178.959 127.518L360.996 257.93C410.833 293.642 461.164 330.466 511.411 365.458C542.861 344.48 575.471 320.155 606.263 298.013L750.575 194.367L808.104 153.03C818.424 145.525 833.893 133.488 844.26 127.288C861.023 127.003 878.671 127.433 895.601 127.34L895.759 175.392C891.962 180.954 879.855 194.562 874.832 200.825L815.79 273.693L635.387 498.519C641.739 505.123 651.619 518.615 657.548 526.132L694.571 572.303L831.957 744.238C804.857 726.86 779.322 708.65 752.782 690.602C745.475 685.618 738.136 680.679 730.767 675.787C712.193 663.499 710.355 660.91 696.629 643.334L672.485 612.436L583.302 499.129C591.05 489.259 598.281 479.169 605.811 469.141C622.056 447.641 638.144 426.022 654.072 404.286L677.344 372.612C682.427 365.643 689.161 356.57 693.413 349.207C692.001 350.151 687.22 355.837 685.858 357.354C673.153 371.512 661.086 386.518 648.934 401.185L598.267 461.43C586.755 475.385 575.096 489.219 563.292 502.928C568.958 509.472 575.528 517.983 580.795 524.805C592.118 538.61 604.126 555.069 615.21 569.37L689.536 664.666C687.785 670.215 686.066 675.773 684.38 681.342C687.588 688.289 691.336 700.984 693.821 708.708C681.66 699.719 669.303 689.67 657.313 680.312L568.237 609.767C549.071 594.491 531.54 580.087 511.625 565.673C471.497 596.302 432.119 629.403 392.206 660.419C371.866 676.224 351.223 693.339 330.181 708.044C333.656 699.427 336.582 689.624 339.663 680.706C337.732 675.967 336.079 669.438 334.679 664.418C338.717 658.413 345.574 650.242 350.2 644.382C358.494 633.89 366.718 623.343 374.873 612.742L459.661 503.534C452.359 493.639 437.862 477.158 429.667 467.553L390.051 420.489C377.127 405.104 364.123 389.788 351.037 374.54C345.151 367.684 336.069 356.552 329.764 350.589C338.514 364.393 351.756 381.042 361.456 394.567C386.778 429.876 414.61 464.315 439.706 499.713C432.807 509.463 422.093 522.322 414.488 532.113C394.848 557.56 374.988 582.837 354.912 607.942L328.015 642.304C323.212 648.468 316.145 658.041 310.747 663.252C306.641 667.216 296.533 673.534 291.303 677.097C277.669 686.432 263.977 695.683 250.229 704.849L210.554 731.898C205.662 735.204 196.623 741.709 191.873 744.226C195.25 740.316 199.563 734.187 202.881 729.886C209.167 721.833 215.543 713.852 222.01 705.943C264.512 653.42 306.742 600.677 348.698 547.717C361.649 531.584 374.522 514.651 387.741 498.828L198.062 264.368L152.282 208.345C146.22 200.985 130.745 183.145 126.927 175.902C127.022 159.65 127.027 143.397 126.94 127.145ZM296.146 289.563C309.905 299.08 325.931 311.876 339.896 322.146L453.689 406.326L488.016 431.821C494.973 436.999 503.431 443.602 510.617 448.24C540.009 427.663 570.691 403.846 599.638 382.413C642.031 351.346 684.139 319.893 725.957 288.056C728.247 290.81 730.848 294.102 733.324 296.605C743.66 281.974 754.669 267.505 764.759 252.781C770.813 244.101 777.33 235.039 783.18 226.277C736.422 259.284 689.888 292.61 643.584 326.251L511.005 421.371C445.376 373.001 377.826 325.546 311.643 277.852L261.216 241.432C258.04 239.147 241.701 227.276 239.181 226.329C254.495 249.273 273.266 274.391 289.381 297.335C291.47 294.885 293.945 291.826 296.146 289.563Z"/><path fill="#FE8A00" transform="scale(0.5 0.5)" d="M511.509 672.368C518.156 673.923 664.718 806.682 682.935 821.519C689.423 826.803 707.049 843.654 716.389 849.967C729.06 850.091 744.054 850.166 756.529 850.714C760.902 855.029 765.495 860.792 769.595 865.525C778.501 875.81 786.961 886.205 796.4 896.035C764.859 896.017 731.928 896.547 700.54 896.011C694.769 891.968 684.056 881.871 678.313 876.851L635.768 839.758L512.371 731.946C510.522 732.6 488.14 752.622 485.229 755.161L368.581 856.561L338.561 882.831C334.97 885.973 326.392 893.789 322.836 896.041L227.654 896.066C229.68 893.516 232.258 890.594 234.516 888.212C245.771 876.336 256.073 862.528 267.381 850.854C278.868 849.92 295.105 850.111 306.96 849.934C313.302 845.302 322.189 837.249 328.249 831.96L363.267 801.354L450.224 725.164C470.363 707.232 490.794 689.631 511.509 672.368Z"/><path fill="#FE8A00" transform="scale(0.5 0.5)" d="M895.199 226.87C896.469 228.829 895.619 290.232 895.57 298.976C891.598 304.962 883.585 314.02 878.802 319.704C868.292 332.004 857.885 344.393 847.582 356.867L779.791 437.698C761.995 459.196 744.029 480.552 725.895 501.766C738.67 517.334 752.824 533.263 766.058 548.543L865.17 662.097C875.338 673.799 886.017 685.603 895.976 697.379C896.566 706.059 896.194 720.081 896.201 728.989L896.051 790.43C886.503 779.646 877.127 769.596 867.529 758.969C861.975 751.489 863.065 727.567 856.271 719.21C848.534 709.693 839.778 700.379 831.626 691.181C815.644 672.869 799.564 654.642 783.387 636.501L702.136 544.352C689.853 530.427 677.105 515.374 664.553 501.817C679.15 483.197 696.628 463.361 711.989 445.094L795.737 345.317L864.149 263.792C873.835 252.291 885.174 237.557 895.199 226.87Z"/><path fill="#FE8A00" transform="scale(0.5 0.5)" d="M127.093 228.752C128.875 229.897 139.791 243.431 141.81 245.8C157.152 263.589 172.343 281.509 187.381 299.558C244.87 366.757 301.93 434.321 358.558 502.247C349.771 512.871 340.038 523.607 330.898 534.017C315.163 552.159 299.258 570.152 283.185 587.995L212.975 667.558L183.335 700.949C178.723 706.119 169.763 715.143 166.622 720.704C160.73 731.136 162.457 746.954 157.331 757.954C150.277 767.654 135.168 780.258 127.996 790.975L127.999 697.055C132.855 690.483 142.591 680.204 148.389 673.678C160.059 660.511 171.652 647.276 183.169 633.976L245.924 561.751C262.874 541.931 280 522.262 297.3 502.747C287.362 491.555 277.293 479.188 267.611 467.692L219.036 410.159C195.114 382.029 171.38 353.741 147.834 325.297C140.996 317.069 133.647 308.858 126.992 300.609C126.747 276.932 126.889 252.446 127.093 228.752Z"/><path fill="#FE8A00" transform="scale(0.5 0.5)" d="M511.227 590.849C513.207 590.869 541.67 613.595 546.489 617.305C594.195 654.226 641.709 691.396 689.028 728.811C696.312 734.556 703.639 740.248 711.008 745.884C713.955 748.157 724.254 755.846 725.791 758.349C730.478 765.977 735.359 779.518 738.825 788.088C745.259 804.188 751.808 820.243 758.471 836.25C750.995 830.295 743.043 824.576 735.474 818.634L635.225 740.369C594.441 708.332 553.45 676.558 512.257 645.049C510.404 645.117 460.054 684.91 455.208 688.679L315.323 797.017L284.06 821.391C279.05 825.296 270.57 832.276 265.434 835.282C272.943 818.898 279.436 801.573 286.452 785.016C288.6 779.949 295.796 760.549 298.37 757.637C302.678 752.764 316.923 742.305 322.943 737.65L365.205 704.781L453.492 635.467C471.789 621.06 492.412 604.336 511.227 590.849Z"/><path fill="#FE8A00" transform="scale(0.5 0.5)" d="M319.646 672.385C321.471 672.821 327.558 677.774 330.017 679.393C322.009 694.67 312.578 710.482 303.937 725.464L272.143 781.196L248.279 822.921C244.046 830.29 238.576 840.408 233.813 847.061C229.607 852.937 221.582 861.17 216.455 866.761L189.74 896.049L138.148 896.062C134.513 896.047 131.581 896.067 127.966 896.336C127.661 876.066 127.929 854.884 127.928 834.553C135.312 828.097 143.289 822.043 150.736 815.618C206.582 767.435 263.901 720.65 319.646 672.385Z"/><path fill="#FE8A00" transform="scale(0.5 0.5)" d="M703.212 672.104C706.456 674.36 714.606 681.538 718.205 684.492L757.893 717.731L835.644 783.655C855.443 800.585 875.874 818.553 896.17 834.706C895.804 854.996 896.176 875.794 896.05 896.16L888.71 896.049L834.768 896.014C832.565 894.072 830.314 891.822 828.368 889.546C812.638 871.143 793.13 854.713 781.63 833.202C779.317 828.875 776.834 824.657 774.444 820.465L748.856 775.682L715.906 718.203C709.221 706.578 700.3 691.761 694.51 679.843C697.355 677.201 700.256 674.621 703.212 672.104Z"/><path fill="#FE8A00" transform="scale(0.5 0.5)" d="M718.442 133.619C740.857 133.189 766.645 134.891 788.69 133.437C777.306 142.102 766.479 151.421 755.348 160.405C741.472 171.604 727.211 182.331 713.524 193.763C707.511 198.786 701.66 203.645 695.128 208.006C691.191 208.721 677.228 208.436 672.577 208.427C656.774 208.311 640.97 208.326 625.168 208.473C631.077 203.253 638.238 197.794 644.469 192.784L679.181 164.838C689.558 156.46 708.019 140.268 718.442 133.619Z"/><path fill="#FE8A00" transform="scale(0.5 0.5)" d="M237.434 133.726C244.754 133.221 255.153 133.516 262.705 133.523L305.975 133.623C312.809 138.393 324.319 148.397 331.151 153.964L379.577 193.156C381.748 194.892 397.005 206.65 397.55 208.008C375.152 208.443 350.473 208.217 328.016 208.041C322.588 204.472 314.119 197.139 308.958 192.9C298.858 184.593 288.707 176.346 278.506 168.161L251.297 146.353C247.66 143.455 239.878 137.744 237.186 134.663L237.434 133.726Z"/></svg>